<svg width="32" height="32" viewBox="0 0 32 32" fill="none" xmlns="http://www.w3.org/2000/svg">
  <!-- Background Circle -->
  <circle cx="16" cy="16" r="16" fill="#000000"/>
  
  <!-- Letter S -->
  <path d="M12 10C12 8.89543 12.8954 8 14 8H18C19.6569 8 21 9.34315 21 11C21 12.6569 19.6569 14 18 14H14C12.3431 14 11 15.3431 11 17C11 18.6569 12.3431 20 14 20H18C19.1046 20 20 20.8954 20 22C20 23.1046 19.1046 24 18 24H14C12.3431 24 11 22.6569 11 21" 
        stroke="white" 
        stroke-width="2.5" 
        stroke-linecap="round"/>
  
  <!-- Dot -->
  <circle cx="23" cy="23" r="2" fill="white"/>
</svg>

